<?xml version="1.0" encoding="utf-8"?>
<!-- Generator: Adobe Illustrator 22.1.0, SVG Export Plug-In . SVG Version: 6.00 Build 0)  -->
<svg version="1.1" id="Слой_1" xmlns="http://www.w3.org/2000/svg" xmlns:xlink="http://www.w3.org/1999/xlink" x="0px" y="0px"
	 viewBox="0 0 610 169" style="enable-background:new 0 0 610 169;" xml:space="preserve">
<style type="text/css">
	.st0{enable-background:new    ;}
	.st1{display:none;stroke:#FFFFFF;stroke-width:5;stroke-miterlimit:10;}
	.st2{font-family:'Electrolize-Regular';}
	.st3{font-size:248.5852px;}
	.st4{letter-spacing:-24;}
	.st5{display:none;}
	.st6{display:inline;}
	.st7{font-size:183.4748px;}
</style>
<g id="Artboard_1" class="st0">
	<text transform="matrix(1 0 0 1 -21.1401 171.3955)" class="st1 st2 st3 st4">2000</text>
	<g>
		<path d="M2.5,19.8V25c0,1.2,1,2.2,2.2,2.2h11.4c1.2,0,2.2-1,2.2-2.2v0c0-3.7,0.3-4.9,0.5-5.6c0.4-1.3,1.5-2.5,3.4-4
			c1.8-1.4,3.2-2.2,4.3-2.5c0.7-0.2,2.1-0.5,6.4-0.5h44.2c4.3,0,5.7,0.3,6.4,0.5c1.2,0.3,2.5,1.1,4.3,2.5c2,1.5,3,2.8,3.4,4
			c0.2,0.7,0.5,2,0.5,5.6v22.1c0,3.6-0.3,6.3-0.9,8.1c-0.6,2-2.2,4.1-4.7,6.3L3.9,136.7c-3,2.6-3.5,3.4-3.5,3.5c0,0.1-0.4,1-0.4,4.8
			v21.6c0,1.2,1,2.2,2.2,2.2h103.4c1.2,0,2.2-1,2.2-2.2v-8c0-1.2-1-2.2-2.2-2.2H18.1c-1.2,0-2.2-1-2.2-2.2V153
			c0-3.6,0.3-5.9,0.9-7.4c0.7-1.5,2.2-3.4,4.8-5.8L104,65.4c2.3-1.9,3-3.2,3.3-4c0.3-0.9,0.6-2.8,0.6-6.6v-35
			c0-4.2-1.7-7.7-5.1-10.5l-6-5c-3.5-2.9-7-4.4-10.3-4.4H23.9c-3.4,0-6.8,1.5-10.3,4.4l-6,5C4.1,12.1,2.5,15.5,2.5,19.8z"/>
		<path d="M271.7,149V19.8c0-4.2-1.7-7.7-5.1-10.5l-6-5c-3.5-2.9-7-4.4-10.3-4.4h-98.4c-3.4,0-6.8,1.5-10.3,4.4l-6,5
			c-3.4,2.8-5.1,6.3-5.1,10.5V149c0,4.2,1.7,7.7,5.1,10.5l6,5c3.5,2.9,7,4.4,10.3,4.4h98.4c3.4,0,6.8-1.5,10.3-4.4l6-5
			C270,156.7,271.7,153.3,271.7,149z M255.8,143.8c0,3.7-0.3,4.9-0.5,5.6c-0.4,1.3-1.5,2.5-3.5,4c-1.8,1.4-3.1,2.2-4.3,2.5
			c-0.7,0.2-2.2,0.5-6.4,0.5h-80c-4.3,0-5.7-0.3-6.4-0.5c-1.2-0.3-2.5-1.2-4.3-2.5c-2-1.5-3-2.8-3.4-4c-0.2-0.7-0.5-2-0.5-5.6V25
			c0-3.7,0.3-4.9,0.5-5.6c0.4-1.3,1.5-2.5,3.4-4c1.8-1.4,3.2-2.2,4.3-2.5c0.7-0.2,2.1-0.5,6.4-0.5h80c4.3,0,5.7,0.3,6.4,0.5
			c1.2,0.3,2.5,1.2,4.3,2.5c2,1.5,3,2.8,3.4,4c0.2,0.7,0.5,2,0.5,5.6V143.8z"/>
		<path d="M440.7,149V19.8c0-4.2-1.7-7.7-5.1-10.5l-6-5c-3.5-2.9-7-4.4-10.3-4.4h-98.4c-3.4,0-6.8,1.5-10.3,4.4l-6,5
			c-3.4,2.8-5.1,6.3-5.1,10.5V149c0,4.2,1.7,7.7,5.1,10.5l6,5c3.5,2.9,7,4.4,10.3,4.4h98.4c3.4,0,6.8-1.5,10.3-4.4l6-5
			C439.1,156.7,440.7,153.3,440.7,149z M424.8,143.8c0,3.7-0.3,4.9-0.5,5.6c-0.4,1.3-1.5,2.5-3.5,4c-1.8,1.4-3.1,2.2-4.3,2.5
			c-0.7,0.2-2.2,0.5-6.4,0.5h-80c-4.3,0-5.7-0.3-6.4-0.5c-1.2-0.3-2.5-1.2-4.3-2.5c-2-1.5-3-2.8-3.4-4c-0.2-0.7-0.5-2-0.5-5.6V25
			c0-3.7,0.3-4.9,0.5-5.6c0.4-1.3,1.5-2.5,3.4-4c1.8-1.4,3.2-2.2,4.3-2.5c0.7-0.2,2.1-0.5,6.4-0.5h80c4.3,0,5.7,0.3,6.4,0.5
			c1.2,0.3,2.5,1.1,4.3,2.5c2,1.5,3,2.8,3.4,4c0.2,0.7,0.5,2,0.5,5.6V143.8z"/>
		<path d="M609.8,149V19.8c0-4.2-1.7-7.7-5.1-10.5l-6-5c-3.5-2.9-7-4.4-10.3-4.4h-98.4c-3.4,0-6.8,1.5-10.3,4.4l-6,5
			c-3.4,2.8-5.1,6.3-5.1,10.5V149c0,4.2,1.7,7.7,5.1,10.5l6,5c3.5,2.9,7,4.4,10.3,4.4h98.4c3.4,0,6.8-1.5,10.3-4.4l6-5
			C608.1,156.7,609.8,153.3,609.8,149z M593.9,143.8c0,3.7-0.3,4.9-0.5,5.6c-0.4,1.3-1.5,2.5-3.5,4c-1.8,1.4-3.1,2.2-4.3,2.5
			c-0.7,0.2-2.2,0.5-6.4,0.5h-80c-4.3,0-5.7-0.3-6.4-0.5c-1.2-0.3-2.5-1.2-4.3-2.5c-2-1.5-3-2.8-3.4-4c-0.2-0.7-0.5-2-0.5-5.6V25
			c0-3.7,0.3-4.9,0.5-5.6c0.4-1.3,1.5-2.5,3.4-4c1.8-1.4,3.2-2.2,4.3-2.5c0.7-0.2,2.1-0.5,6.4-0.5h80c4.3,0,5.7,0.3,6.4,0.5
			c1.2,0.3,2.5,1.1,4.3,2.5c2,1.5,3,2.8,3.4,4c0.2,0.7,0.5,2,0.5,5.6V143.8z"/>
	</g>
	<g class="st5">
		<text transform="matrix(1 0 0 1 143.1104 148.0889)" class="st6 st2 st7">S</text>
		<text transform="matrix(1 0 0 1 304.1104 148.0889)" class="st6 st2 st7">G</text>
		<text transform="matrix(1 0 0 1 473.1104 148.0889)" class="st6 st2 st7">G</text>
	</g>
	<g>
		<g>
			<path d="M221.2,89.4h-43.9c-2.9,0-5.9-1.2-8.8-3.7l-5-4.2c-2.6-2.1-3.9-4.5-3.9-7.3v-38c0-3.7,1.5-6.7,4.4-9.2l4.4-3.7
				c2.9-2.4,5.9-3.7,8.8-3.7h48.8c2.9,0,5.9,1.2,8.8,3.7l4.4,3.7c2.9,2.4,4.4,5.5,4.4,9.2V40c0,1.9-1.6,3.5-3.5,3.5h-8.4
				c-1.9,0-3.5-1.6-3.5-3.5v0c0-1.8-0.1-3-0.3-3.6c-0.2-0.6-0.8-1.3-1.9-2.1c-1.1-0.9-2-1.4-2.6-1.6c-0.6-0.2-2-0.3-4.2-0.3h-35.2
				c-2.2,0-3.6,0.1-4.2,0.3c-0.6,0.2-1.5,0.7-2.6,1.6c-1.1,0.9-1.7,1.6-1.9,2.1c-0.2,0.6-0.3,1.7-0.3,3.6v29c0,1.8,0.1,3,0.3,3.6
				c0.2,0.6,0.8,1.3,1.9,2.1c1.1,0.9,2,1.4,2.6,1.6c0.6,0.2,2,0.3,4.2,0.3H228c2.9,0,5.9,1.2,8.8,3.7l4.4,3.7
				c2.9,2.4,4.4,5.5,4.4,9.2v38.5c0,3.7-1.5,6.7-4.4,9.2l-4.4,3.7c-2.9,2.4-5.9,3.7-8.8,3.7h-52.5c-2.9,0-5.9-1.2-8.8-3.7l-4.4-3.7
				c-2.9-2.4-4.4-5.5-4.4-9.2v-3.9c0-1.9,1.6-3.5,3.5-3.5h8.4c1.9,0,3.5,1.6,3.5,3.5v0c0,1.8,0.1,3,0.3,3.6c0.2,0.6,0.8,1.3,1.9,2.1
				c1.1,0.9,2,1.4,2.6,1.6c0.6,0.2,2,0.3,4.2,0.3h38.9c2.2,0,3.6-0.1,4.2-0.3c0.6-0.2,1.5-0.7,2.6-1.6c1.1-0.9,1.7-1.6,1.9-2.1
				c0.2-0.5,0.3-1.7,0.3-3.6V96.9c0-1.8-0.1-3-0.3-3.6c-0.2-0.6-0.8-1.3-1.9-2.1c-1.1-0.9-2-1.4-2.6-1.6
				C224.8,89.5,223.4,89.4,221.2,89.4z"/>
		</g>
		<g>
			<path d="M413.9,43.5h-8.4c-1.9,0-3.5-1.6-3.5-3.5v0c0-1.8-0.1-3-0.3-3.6c-0.2-0.6-0.8-1.3-1.9-2.1c-1.1-0.9-2-1.4-2.6-1.6
				c-0.6-0.2-2-0.3-4.2-0.3h-45.1c-2.2,0-3.6,0.1-4.2,0.3c-0.6,0.2-1.5,0.7-2.6,1.6c-1.1,0.9-1.7,1.6-1.9,2.1
				c-0.2,0.6-0.3,1.7-0.3,3.6v87.7c0,1.8,0.1,3,0.3,3.6c0.2,0.6,0.8,1.3,1.9,2.1c1.1,0.9,2,1.4,2.6,1.6c0.6,0.2,2,0.3,4.2,0.3H393
				c2.2,0,3.6-0.1,4.2-0.3c0.6-0.2,1.5-0.7,2.6-1.6c1.1-0.9,1.7-1.6,1.9-2.1c0.2-0.5,0.3-1.7,0.3-3.6V98.4c0-1.9-1.6-3.5-3.5-3.5
				h-20.9c-1.9,0-3.5-1.6-3.5-3.5v-5.9c0-1.9,1.6-3.5,3.5-3.5h36.3c1.9,0,3.5,1.6,3.5,3.5v46.1c0,3.7-1.5,6.7-4.4,9.2l-4.4,3.7
				c-2.9,2.4-5.9,3.7-8.8,3.7h-58.7c-2.9,0-5.9-1.2-8.8-3.7l-4.4-3.7c-2.9-2.4-4.4-5.5-4.4-9.2V36.2c0-3.7,1.5-6.7,4.4-9.2l4.4-3.7
				c2.9-2.4,5.9-3.7,8.8-3.7h58.7c2.9,0,5.9,1.2,8.8,3.7L413,27c2.9,2.4,4.4,5.5,4.4,9.2V40C417.4,41.9,415.8,43.5,413.9,43.5z"/>
		</g>
		<g>
			<path d="M582.9,43.5h-8.4c-1.9,0-3.5-1.6-3.5-3.5v0c0-1.8-0.1-3-0.3-3.6c-0.2-0.6-0.8-1.3-1.9-2.1c-1.1-0.9-2-1.4-2.6-1.6
				c-0.6-0.2-2-0.3-4.2-0.3h-45.1c-2.2,0-3.6,0.1-4.2,0.3c-0.6,0.2-1.5,0.7-2.6,1.6c-1.1,0.9-1.7,1.6-1.9,2.1
				c-0.2,0.6-0.3,1.7-0.3,3.6v87.7c0,1.8,0.1,3,0.3,3.6c0.2,0.6,0.8,1.3,1.9,2.1c1.1,0.9,2,1.4,2.6,1.6c0.6,0.2,2,0.3,4.2,0.3H562
				c2.2,0,3.6-0.1,4.2-0.3c0.6-0.2,1.5-0.7,2.6-1.6c1.1-0.9,1.7-1.6,1.9-2.1c0.2-0.5,0.3-1.7,0.3-3.6V98.4c0-1.9-1.6-3.5-3.5-3.5
				h-20.9c-1.9,0-3.5-1.6-3.5-3.5v-5.9c0-1.9,1.6-3.5,3.5-3.5h36.3c1.9,0,3.5,1.6,3.5,3.5v46.1c0,3.7-1.5,6.7-4.4,9.2l-4.4,3.7
				c-2.9,2.4-5.9,3.7-8.8,3.7h-58.7c-2.9,0-5.9-1.2-8.8-3.7l-4.4-3.7c-2.9-2.4-4.4-5.5-4.4-9.2V36.2c0-3.7,1.5-6.7,4.4-9.2l4.4-3.7
				c2.9-2.4,5.9-3.7,8.8-3.7h58.7c2.9,0,5.9,1.2,8.8,3.7L582,27c2.9,2.4,4.4,5.5,4.4,9.2V40C586.4,41.9,584.8,43.5,582.9,43.5z"/>
		</g>
	</g>
</g>
</svg>
